<?xml version="1.0" encoding="utf-8"?>
<!-- Generator: Adobe Illustrator 22.0.1, SVG Export Plug-In . SVG Version: 6.00 Build 0)  -->
<svg version="1.1" xmlns="http://www.w3.org/2000/svg" xmlns:xlink="http://www.w3.org/1999/xlink" x="0px" y="0px"
	 viewBox="0 0 165.3 73.9" style="enable-background:new 0 0 165.3 73.9;" xml:space="preserve">
<style type="text/css">
	.st0{fill:#E52421;}
	.st1{fill:#E52B1F;}
</style>
<g id="Calque_1">
</g>
<g id="Calque_2">
	<g>
		<g>
			<path class="st0" d="M99.4,22.3c0.8,1.2,1,2.5,0.5,4.1c-0.2,0.4-0.5,1.2-1,2.4c-0.3,0.6-0.6,1.2-1,1.9c-0.2,0.3-0.4,0.7-0.6,1.1
				c-0.2,0.3-0.3,0.6-0.5,1c0,0.1-0.1,0.1-0.1,0.2c-0.8,1.7-1.8,3.5-2.9,5.5c-1.1,2-2.5,4-4,6c-1.5,2-3.1,3.9-4.8,5.6
				c-0.2,0.2-0.4,0.3-0.6,0.5c0,0-0.1,0.1-0.1,0.1c-0.1,0.1-0.1,0.1-0.2,0.2c-0.2,0.2-0.4,0.3-0.5,0.4c-0.1,0.1-0.2,0.2-0.3,0.2
				c-0.1,0.1-0.2,0.3-0.3,0.4c-0.2,0.1-0.3,0.2-0.5,0.4c-0.1,0.1-0.2,0.1-0.2,0.2c-0.9,0.7-1.7,1.4-2.5,1.9c-1.7,1.2-3.1,2-4.3,2.5
				c-1.2,0.5-1.9,0.7-2.1,0.6c-0.2-0.2,0-0.7,0.7-1.5c0.3-0.4,0.8-0.9,1.2-1.4c0.5-0.6,1-1.2,1.5-1.8c0.6-0.6,1.1-1.3,1.7-2.1
				c0.1-0.1,0.1-0.2,0.2-0.2c0.1-0.1,0.2-0.2,0.3-0.3c0.1-0.1,0.2-0.3,0.3-0.4c0-0.1,0.1-0.2,0.1-0.2c0.1-0.1,0.2-0.3,0.3-0.4
				c0-0.1,0.1-0.1,0.1-0.2c0.1-0.1,0.2-0.3,0.3-0.4c0-0.1,0.1-0.2,0.2-0.3c1.2-1.7,2.2-3.6,3.2-5.6c2-4.1,3.5-7.9,4.6-11.4
				c0-0.1,0.1-0.2,0.1-0.2c0.1-0.3,0.2-0.7,0.3-1c0.1-0.3,0.2-0.5,0.3-0.8c0-0.1,0.1-0.2,0.1-0.4c0.2-0.4,0.3-0.7,0.4-1
				c0.1-0.3,0.2-0.6,0.3-0.9c0.3-0.7,0.5-1.3,0.6-1.7c0-0.1,0.1-0.2,0.1-0.3c-0.1,0-0.1,0-0.2,0c-0.2,0.1-0.4,0.1-0.5,0.2
				c-1.4,0.4-2.8,0.9-4.3,1.3c-1.4,0.4-2.8,0.7-4,1c-2.6,0.6-4.2,0.9-4.8,0.9c-0.5,0.1-1,0-1.5-0.1c-0.1,0-0.2-0.1-0.3-0.1
				c-0.1,0-0.2-0.1-0.2-0.1c-0.1,0-0.2-0.1-0.2-0.1c-0.3-0.1-0.7-0.2-1-0.4c-0.5-0.3-0.9-0.7-1-1.2c-0.2-0.4-0.2-0.9,0-1.4
				c0.2-0.4,0.3-0.8,0.5-1.1c0,0,0-0.1,0-0.1c0.2-0.3,0.3-0.7,0.5-1c0-0.1,0.1-0.2,0.1-0.2c0-0.1,0-0.1,0-0.2h0.1
				c0-0.1,0-0.1,0.1-0.2c0.1-0.1,0.2-0.1,0.3-0.2c0.3-0.2,0.7-0.3,1.2-0.4c0.3,0,0.8-0.1,1.7-0.1c0.8-0.1,1.7-0.1,2.8-0.2
				c1.2-0.1,2.4-0.2,3.8-0.4c1.2-0.1,2.5-0.2,3.8-0.4c0.2,0,0.3,0,0.5,0c0.8-0.1,1.5-0.2,2.3-0.2c0.7-0.1,1.4-0.1,2-0.2
				c1.3-0.2,2.5-0.3,3.6-0.4c0.2,0,0.3-0.1,0.5-0.1c0.9-0.1,1.7-0.2,2.3-0.2c0.6,0,1,0.1,1.2,0.2c0.2,0.2,0.1,0.5-0.3,1
				c-0.2,0.2-0.5,0.5-0.9,0.8C98.8,21.7,99.1,22,99.4,22.3z"/>
			<path class="st0" d="M111.5,32.5c0.1,0.1-0.1,0.3-0.3,0.6c-0.2,0.1-0.3,0.3-0.6,0.4c-0.2,0.2-0.5,0.3-0.7,0.5
				c-0.3,0.2-0.6,0.4-1,0.6c0.1,0.5,0.2,1,0.3,1.5c0.4,1.7,0.7,3.2,0.9,4.5c0.2,1.3,0.2,2,0,2.1c-0.2,0-0.6-0.6-1.2-1.8
				c-0.6-1.2-1.2-2.6-1.8-4.2c-0.1-0.3-0.3-0.6-0.4-1c-0.3,0.2-0.7,0.3-1,0.5c-1.6,0.8-3,1.5-4.4,2c0,0,0,0,0,0.1
				c0,0-0.1,0.1-0.1,0.1c-1.2,1.9-2.2,3.5-3.2,4.9c-0.5,0.7-0.8,1.2-1.1,1.5c-0.2,0.2-0.3,0.3-0.4,0.4c-0.1,0.1-0.2,0.1-0.2,0.1
				c-0.1,0-0.1-0.1-0.1-0.2c0-0.2,0-0.3,0.1-0.6c0.1-0.5,0.3-1.1,0.6-1.8c0.4-0.9,0.8-2,1.3-3.2c-0.1,0-0.3,0.1-0.4,0.1
				c-0.1,0-0.3,0-0.4,0c-0.1,0-0.2,0-0.3-0.1c-0.1,0-0.2-0.1-0.3-0.1c-0.1-0.1-0.2-0.1-0.2-0.2c-0.2-0.2-0.3-0.3-0.4-0.5
				c-0.1-0.2-0.1-0.4-0.1-0.6c0-0.1,0-0.2,0.1-0.3c0-0.1,0.1-0.2,0.2-0.3c0.1-0.1,0.1-0.2,0.2-0.3c0.1-0.1,0.2-0.2,0.3-0.3
				c0.2-0.2,0.4-0.3,0.7-0.4c0.3-0.1,1.2-0.4,2.5-0.8c0.6-1.4,1.2-2.6,1.7-3.8c0.3-0.6,0.5-1.2,0.8-1.7c0.3-0.7,0.5-1.1,0.6-1.3
				c0.3-0.6,0.7-1.1,1.1-1.3c0.4-0.3,0.9-0.4,1.3-0.3c0.1,0,0.2,0.1,0.3,0.1c0.4,0,0.7,0.1,1,0.4c0.3,0.3,0.5,0.6,0.7,1
				c0.1,0.2,0.2,0.7,0.4,1.5c0.2,0.8,0.4,1.7,0.7,2.8c0.3-0.1,0.6-0.2,0.8-0.2c0.3-0.1,0.6-0.2,0.8-0.2c0.3-0.1,0.5-0.1,0.7-0.2
				C111.2,32.4,111.4,32.4,111.5,32.5z M104.4,34.6c0.4-0.1,0.8-0.2,1.1-0.3c-0.3-0.7-0.5-1.4-0.8-2c-0.3,0.4-0.5,0.9-0.8,1.5
				c-0.2,0.4-0.5,0.8-0.8,1.3C103.6,34.8,104,34.7,104.4,34.6z"/>
			<path class="st0" d="M121.4,31.5c0.1,0.7,0,1.3-0.2,2c-0.2,0.6-0.5,1.2-0.8,1.7c-0.4,0.5-0.8,0.9-1.2,1.3c0,0-0.1,0.1-0.1,0.1
				c-0.1,0.1-0.2,0.1-0.2,0.2c0,0,0,0-0.1,0.1c-0.1,0.1-0.2,0.1-0.3,0.2c-0.2,0.1-0.5,0.2-0.7,0.3c-0.4,0.2-0.8,0.4-1.2,0.5
				c-0.2,0.1-0.4,0.1-0.6,0.2c0,0.1,0,0.2,0,0.3c-0.2,1.6-0.5,2.9-0.8,4c-0.3,1.1-0.6,1.7-0.8,1.7c-0.1,0-0.2-0.2-0.3-0.5
				c-0.1-0.3-0.1-0.8-0.1-1.3c0-0.5-0.1-1.1-0.1-1.7c0-0.7-0.1-1.5-0.1-2.3c-0.1-1.5-0.2-2.9-0.4-4.1c-0.1-1.1-0.2-1.8-0.3-2.2
				c0,0,0,0,0-0.1c0-0.4,0.1-0.7,0.3-1c-0.1,0-0.1,0-0.2,0c-0.1,0-0.2,0-0.3,0c-0.2,0-0.4-0.1-0.6-0.2c-0.2-0.1-0.4-0.3-0.4-0.5
				c0-0.1-0.1-0.2-0.1-0.4c0-0.2,0-0.3,0.1-0.5c0.1-0.3,0.3-0.7,0.7-1c0.3-0.3,0.7-0.5,1.1-0.7c0.2-0.1,0.7-0.2,1.4-0.3
				c0.3,0,0.7-0.1,1.1-0.1c0.4,0,0.9,0,1.5,0.1c0.3,0,0.6,0.1,0.8,0.2c0.3,0.1,0.6,0.2,0.9,0.4c0.1,0,0.1,0.1,0.2,0.1
				c0,0,0.1,0.1,0.1,0.1c0,0,0.1,0,0.1,0.1c0.1,0.1,0.3,0.2,0.4,0.4c0.3,0.3,0.5,0.6,0.7,0.9c0.2,0.3,0.3,0.6,0.4,1
				c0,0.2,0.1,0.3,0.1,0.5c0,0.1,0,0.2,0.1,0.4C121.4,31.4,121.4,31.4,121.4,31.5z M119,33c0.1-0.4,0-0.8-0.1-1.2c0,0,0-0.1,0-0.1
				c0-0.1,0-0.1,0-0.2c0-0.1-0.1-0.2-0.1-0.2c-0.1-0.2-0.1-0.3-0.2-0.4c-0.1-0.1-0.2-0.2-0.3-0.3c0,0-0.1-0.1-0.2-0.1
				c0,0,0,0-0.1-0.1l-0.1,0c-0.2-0.1-0.5-0.2-0.8-0.2c-0.5,0-1,0-1.4,0.1c0.3,0.3,0.5,0.7,0.5,1.1c0,0.1,0,0.4,0,0.9
				c0,0.1,0,0.2,0,0.3c0,0.1,0,0.3,0,0.4c0,0.1,0,0.1,0,0.2c0,0.2,0,0.4,0,0.7c0,0.8-0.1,1.7-0.1,2.7c0.3-0.2,0.6-0.4,1-0.6
				c0.2-0.1,0.3-0.3,0.5-0.4c0,0,0.1-0.1,0.1-0.1c0,0,0.1,0,0.1-0.1c0,0,0.1-0.1,0.1-0.1c0,0,0.1-0.1,0.1-0.1
				C118.6,34.5,118.9,33.8,119,33z"/>
			<path class="st0" d="M135.9,32.5c0.1,0.1-0.1,0.3-0.3,0.6c-0.2,0.1-0.3,0.3-0.6,0.4c-0.2,0.2-0.5,0.3-0.7,0.5
				c-0.3,0.2-0.6,0.4-1,0.6c0.1,0.5,0.2,1,0.3,1.5c0.4,1.7,0.7,3.2,0.9,4.5c0.2,1.3,0.2,2,0,2.1c-0.2,0-0.6-0.6-1.2-1.8
				c-0.6-1.2-1.2-2.6-1.8-4.2c-0.1-0.3-0.3-0.6-0.4-1c-0.3,0.2-0.7,0.3-1,0.5c-1.6,0.8-3,1.5-4.4,2c0,0,0,0,0,0.1
				c0,0-0.1,0.1-0.1,0.1c-1.2,1.9-2.2,3.5-3.2,4.9c-0.5,0.7-0.8,1.2-1.1,1.5c-0.2,0.2-0.3,0.3-0.4,0.4c-0.1,0.1-0.2,0.1-0.2,0.1
				c-0.1,0-0.1-0.1-0.1-0.2c0-0.2,0-0.3,0.1-0.6c0.1-0.5,0.3-1.1,0.6-1.8c0.4-0.9,0.8-2,1.3-3.2c-0.1,0-0.3,0.1-0.4,0.1
				c-0.1,0-0.3,0-0.4,0c-0.1,0-0.2,0-0.3-0.1c-0.1,0-0.2-0.1-0.3-0.1c-0.1-0.1-0.2-0.1-0.2-0.2c-0.2-0.2-0.3-0.3-0.4-0.5
				c-0.1-0.2-0.1-0.4-0.1-0.6c0-0.1,0-0.2,0.1-0.3c0-0.1,0.1-0.2,0.2-0.3c0.1-0.1,0.1-0.2,0.2-0.3c0.1-0.1,0.2-0.2,0.3-0.3
				c0.2-0.2,0.4-0.3,0.7-0.4c0.3-0.1,1.2-0.4,2.5-0.8c0.6-1.4,1.2-2.6,1.7-3.8c0.3-0.6,0.5-1.2,0.8-1.7c0.3-0.7,0.5-1.1,0.6-1.3
				c0.3-0.6,0.7-1.1,1.1-1.3c0.4-0.3,0.9-0.4,1.3-0.3c0.1,0,0.2,0.1,0.3,0.1c0.4,0,0.7,0.1,1,0.4c0.3,0.3,0.5,0.6,0.7,1
				c0.1,0.2,0.2,0.7,0.4,1.5c0.2,0.8,0.4,1.7,0.7,2.8c0.3-0.1,0.6-0.2,0.8-0.2c0.3-0.1,0.6-0.2,0.8-0.2c0.3-0.1,0.5-0.1,0.7-0.2
				C135.6,32.4,135.8,32.4,135.9,32.5z M128.8,34.6c0.4-0.1,0.8-0.2,1.1-0.3c-0.3-0.7-0.5-1.4-0.8-2c-0.3,0.4-0.5,0.9-0.8,1.5
				c-0.2,0.4-0.5,0.8-0.8,1.3C127.9,34.8,128.4,34.7,128.8,34.6z"/>
			<path class="st0" d="M150.2,30.5c0,0.1,0,0.2,0,0.3c0,0.2,0,0.3,0,0.6c0,0.4,0,1-0.1,1.7c-0.1,1.4-0.2,2.9-0.4,4.5
				c-0.2,1.6-0.4,3.1-0.7,4.3c-0.1,0.5-0.2,0.8-0.3,1.2c0.1,0.3,0.1,0.5,0,0.6c0,0-0.1,0-0.2-0.1c-0.1,0.1-0.1,0.2-0.2,0.2
				c-0.1,0-0.3-0.2-0.4-0.7c-0.3-0.3-0.7-0.7-1.1-1.2c-1-1.2-2.1-2.6-3.4-4.2c0,0-0.1-0.1-0.1-0.1c-1-1.3-2-2.5-2.9-3.7
				c-0.1,1.1-0.2,2.3-0.4,3.5c-0.2,1.7-0.5,3.2-0.8,4.5c-0.3,1.3-0.5,1.9-0.8,2c-0.2-0.1-0.4-0.8-0.5-2.1c-0.1-1.3-0.2-2.8-0.3-4.5
				c0-0.4,0-0.7-0.1-1.1c-0.1-1.3-0.1-2.5-0.2-3.6c-0.1-1.4-0.1-2.3-0.1-2.6c0-0.1,0-0.3,0-0.4c-0.1-0.3-0.1-0.5-0.1-0.8
				c0-0.6,0.2-1,0.6-1.2c0.4-0.2,0.9-0.2,1.4-0.1c0.2,0.1,0.5,0.2,0.7,0.4c0.2,0.2,0.4,0.4,0.6,0.7c0.2,0.2,0.5,0.8,1.1,1.7
				c0.2,0.3,0.4,0.6,0.6,1c0.9,1.5,2,3.1,3,5c0.8,1.4,1.6,2.8,2.2,4c-0.1-0.9-0.2-1.8-0.2-2.7c0-0.4-0.1-0.9-0.1-1.3
				c-0.1-1.1-0.1-2.2-0.2-3.1c0-0.3-0.1-0.7-0.1-1c0-0.2,0-0.4-0.1-0.6c0-0.1,0-0.2,0-0.2c0-0.1,0-0.2,0-0.3c0-0.2,0-0.3,0-0.3
				c0-0.5,0.1-0.9,0.4-1.1c0.1-0.1,0.3-0.3,0.4-0.4c0.2-0.1,0.4-0.2,0.6-0.3c0.2-0.1,0.4-0.1,0.7,0c0.2,0,0.4,0.2,0.6,0.3
				C149.9,29.4,150.1,29.9,150.2,30.5z"/>
			<path class="st0" d="M121.5,55.6c0.3,0,0.6,0.1,0.7,0.1c0.2,0,0.3,0.1,0.3,0.2c0,0.2-0.3,0.3-1,0.6c-0.6,0.2-1.4,0.4-2.3,0.5
				c-0.9,0.1-1.7,0.3-2.4,0.3c-0.7,0.1-1.2,0.1-1.3,0.1c-0.3,0-0.5-0.1-0.7-0.3c-0.2-0.2-0.3-0.5-0.3-0.8c0-0.4,0.2-0.7,0.5-0.9
				c-0.1-0.8-0.2-1.7-0.3-2.7c-0.1-1.2-0.2-2.3-0.3-3.3c0-0.2,0-0.4,0-0.5c-0.1-0.7-0.1-1.1-0.1-1.3c0-0.4,0.1-0.7,0.3-1
				c0.2-0.3,0.4-0.4,0.7-0.4c0.1,0,0.2,0,0.3,0c0.2-0.1,0.4-0.1,0.5,0c0,0,0.1,0,0.2,0.1c0.2,0.1,0.4,0.2,0.8,0.3
				c0.6,0.2,1.2,0.4,2,0.6c0.2,0,0.3,0.1,0.5,0.2c0.6,0.2,1.2,0.3,1.6,0.5c0.5,0.2,0.7,0.3,0.7,0.4c0,0.1-0.4,0.3-1,0.3
				c-0.6,0.1-1.3,0.1-2.1,0.1c-0.8,0-1.6-0.1-2.2-0.2c-0.1,0-0.2,0-0.3,0c0,0.3,0,0.6,0,0.9c0,0.6,0,1.2-0.1,2
				c0.3,0,0.7,0.1,1.2,0.1c0.5,0.1,1,0.1,1.5,0.2c0.5,0.1,0.9,0.2,1.2,0.3c0.3,0.1,0.5,0.2,0.5,0.4c0,0.1-0.2,0.3-0.6,0.4
				c-0.4,0.1-0.8,0.2-1.3,0.3c-0.5,0.1-1,0.2-1.5,0.2c-0.5,0.1-0.9,0.1-1.1,0.1c-0.1,0.6-0.1,1.2-0.2,1.8c0.3,0,0.6,0,0.9,0.1
				c0.7,0,1.4,0.1,2.2,0.1c0.1,0,0.3,0,0.4,0C120.4,55.5,121,55.6,121.5,55.6z"/>
			<path class="st0" d="M130.7,50.1c-0.4,0.4-0.9,0.9-1.4,1.4c0.2,0.4,0.4,0.8,0.6,1.3c0,0.1,0,0.1,0.1,0.2c0.3,0.6,0.5,1.1,0.8,1.6
				c0.3,0.7,0.6,1.3,0.8,1.8c0.2,0.5,0.4,0.9,0.5,1.2c0.1,0.3,0.1,0.5,0,0.5c-0.1,0-0.2-0.1-0.5-0.3c-0.2-0.2-0.5-0.5-0.8-0.9
				c-0.7-0.8-1.5-1.9-2.3-3.1c-0.2-0.3-0.4-0.6-0.5-0.8c-0.1,0.1-0.2,0.2-0.3,0.3c-0.2,0.2-0.3,0.4-0.5,0.5c-0.4,0.4-0.7,0.7-1,1.1
				c-0.5,0.5-0.9,1-1.3,1.4c-0.4,0.4-0.7,0.7-1,0.9c-0.3,0.2-0.4,0.3-0.5,0.3c-0.1-0.1,0-0.2,0.1-0.5c0.1-0.3,0.3-0.7,0.6-1.2
				c0.3-0.5,0.6-1,1-1.6c0.4-0.6,0.8-1.2,1.3-1.8c0.2-0.3,0.4-0.5,0.6-0.8c0-0.1-0.1-0.1-0.1-0.2c0,0,0,0,0,0
				c-0.2-0.3-0.3-0.5-0.5-0.8c-0.3-0.4-0.5-0.7-0.7-1c0-0.1-0.1-0.1-0.1-0.2c-0.2-0.3-0.4-0.5-0.4-0.6c-0.2-0.4-0.3-0.8-0.3-1.2
				c0-0.4,0.2-0.7,0.5-0.8c0.3-0.2,0.6-0.2,1,0c0.3,0.1,0.6,0.4,0.9,0.8c0.1,0.1,0.2,0.3,0.4,0.7c0.2,0.3,0.4,0.8,0.7,1.3
				c0,0.1,0.1,0.1,0.1,0.2c0.2-0.3,0.5-0.6,0.7-0.8c0.4-0.5,0.7-0.9,1-1.2c0.2-0.3,0.4-0.5,0.5-0.6c0,0,0,0,0.1-0.1
				c0.3-0.3,0.6-0.5,0.9-0.6c0.2,0,0.3-0.1,0.5-0.1c0.2,0,0.3,0,0.5,0.1c0.2,0.1,0.3,0.2,0.4,0.3c0.1,0.2,0.1,0.3,0.1,0.6
				c0,0.5-0.2,0.9-0.6,1.3c-0.1,0.1-0.2,0.2-0.3,0.3c-0.1,0.1-0.2,0.2-0.3,0.3C131.5,49.3,131.2,49.7,130.7,50.1z M130.7,50.1
				c-0.4,0.4-0.9,0.9-1.4,1.4c0.2,0.4,0.4,0.8,0.6,1.3c0,0.1,0,0.1,0.1,0.2c0.3,0.6,0.5,1.1,0.8,1.6c0.3,0.7,0.6,1.3,0.8,1.8
				c0.2,0.5,0.4,0.9,0.5,1.2c0.1,0.3,0.1,0.5,0,0.5c-0.1,0-0.2-0.1-0.5-0.3c-0.2-0.2-0.5-0.5-0.8-0.9c-0.7-0.8-1.5-1.9-2.3-3.1
				c-0.2-0.3-0.4-0.6-0.5-0.8c-0.1,0.1-0.2,0.2-0.3,0.3c-0.2,0.2-0.3,0.4-0.5,0.5c-0.4,0.4-0.7,0.7-1,1.1c-0.5,0.5-0.9,1-1.3,1.4
				c-0.4,0.4-0.7,0.7-1,0.9c-0.3,0.2-0.4,0.3-0.5,0.3c-0.1-0.1,0-0.2,0.1-0.5c0.1-0.3,0.3-0.7,0.6-1.2c0.3-0.5,0.6-1,1-1.6
				c0.4-0.6,0.8-1.2,1.3-1.8c0.2-0.3,0.4-0.5,0.6-0.8c0-0.1-0.1-0.1-0.1-0.2c0,0,0,0,0,0c-0.2-0.3-0.3-0.5-0.5-0.8
				c-0.3-0.4-0.5-0.7-0.7-1c0-0.1-0.1-0.1-0.1-0.2c-0.2-0.3-0.4-0.5-0.4-0.6c-0.2-0.4-0.3-0.8-0.3-1.2c0-0.4,0.2-0.7,0.5-0.8
				c0.3-0.2,0.6-0.2,1,0c0.3,0.1,0.6,0.4,0.9,0.8c0.1,0.1,0.2,0.3,0.4,0.7c0.2,0.3,0.4,0.8,0.7,1.3c0,0.1,0.1,0.1,0.1,0.2
				c0.2-0.3,0.5-0.6,0.7-0.8c0.4-0.5,0.7-0.9,1-1.2c0.2-0.3,0.4-0.5,0.5-0.6c0,0,0,0,0.1-0.1c0.3-0.3,0.6-0.5,0.9-0.6
				c0.2,0,0.3-0.1,0.5-0.1c0.2,0,0.3,0,0.5,0.1c0.2,0.1,0.3,0.2,0.4,0.3c0.1,0.2,0.1,0.3,0.1,0.6c0,0.5-0.2,0.9-0.6,1.3
				c-0.1,0.1-0.2,0.2-0.3,0.3c-0.1,0.1-0.2,0.2-0.3,0.3C131.5,49.3,131.2,49.7,130.7,50.1z"/>
			<path class="st0" d="M140.4,49.1c0,0.5,0,0.9-0.1,1.4c-0.1,0.4-0.3,0.8-0.6,1.2c-0.3,0.3-0.5,0.6-0.8,0.9c0,0,0,0-0.1,0.1
				c-0.1,0-0.1,0.1-0.2,0.1c0,0,0,0,0,0c-0.1,0-0.1,0.1-0.2,0.1c-0.2,0.1-0.3,0.2-0.5,0.2c-0.3,0.1-0.6,0.2-0.8,0.3
				c-0.1,0-0.3,0.1-0.4,0.1c0,0.1,0,0.1,0,0.2c-0.1,1.1-0.3,2-0.5,2.7c-0.2,0.8-0.4,1.2-0.6,1.2c-0.1,0-0.1-0.1-0.2-0.4
				c0-0.2-0.1-0.5-0.1-0.9c0-0.4,0-0.7-0.1-1.2c0-0.5-0.1-1-0.1-1.5c-0.1-1-0.2-2-0.3-2.8c-0.1-0.7-0.2-1.2-0.2-1.5c0,0,0,0,0,0
				c0-0.3,0-0.5,0.2-0.7c0,0-0.1,0-0.1,0c-0.1,0-0.1,0-0.2,0c-0.1,0-0.3,0-0.4-0.1c-0.1-0.1-0.2-0.2-0.3-0.3c0-0.1,0-0.2,0-0.3
				c0-0.1,0-0.2,0.1-0.3c0.1-0.2,0.2-0.5,0.4-0.6c0.2-0.2,0.5-0.3,0.8-0.4c0.2-0.1,0.5-0.1,0.9-0.2c0.2,0,0.5-0.1,0.8-0.1
				c0.3,0,0.6,0,1,0.1c0.2,0,0.4,0.1,0.6,0.2c0.2,0.1,0.4,0.2,0.6,0.3c0,0,0.1,0.1,0.2,0.1c0,0,0.1,0,0.1,0.1c0,0,0,0,0.1,0
				c0.1,0.1,0.2,0.2,0.3,0.3c0.2,0.2,0.3,0.4,0.4,0.6c0.1,0.2,0.2,0.4,0.3,0.7c0,0.1,0.1,0.2,0.1,0.3
				C140.4,48.8,140.4,48.9,140.4,49.1C140.4,49,140.4,49,140.4,49.1z M138.8,50.1c0-0.3,0-0.5,0-0.8c0,0,0-0.1,0-0.1
				c0,0,0-0.1,0-0.1c0-0.1,0-0.1-0.1-0.2c0-0.1-0.1-0.2-0.2-0.3c-0.1-0.1-0.1-0.1-0.2-0.2c0,0-0.1,0-0.1-0.1c0,0,0,0,0,0l-0.1,0
				c-0.2-0.1-0.3-0.1-0.6-0.1c-0.3,0-0.7,0-1,0.1c0.2,0.2,0.3,0.5,0.3,0.8c0,0.1,0,0.3,0,0.6c0,0.1,0,0.1,0,0.2c0,0.1,0,0.2,0,0.3
				c0,0,0,0.1,0,0.1c0,0.1,0,0.3,0,0.5c0,0.5,0,1.2-0.1,1.8c0.2-0.1,0.4-0.3,0.6-0.4c0.1-0.1,0.2-0.2,0.3-0.3c0,0,0.1-0.1,0.1-0.1
				c0,0,0,0,0.1,0c0,0,0.1-0.1,0.1-0.1c0,0,0,0,0.1-0.1C138.5,51.1,138.7,50.6,138.8,50.1z"/>
			<path class="st0" d="M146.6,46.7c0.2,0.2,0.4,0.5,0.7,0.8c0.3,0.3,0.5,0.7,0.8,1.2c0.1,0.1,0.1,0.2,0.2,0.3c0,0,0,0,0,0.1
				c0,0,0,0.1,0.1,0.1c0,0.1,0.1,0.2,0.1,0.3c0.1,0.3,0.2,0.5,0.3,0.8c0.2,0.6,0.3,1.2,0.4,1.9c0,0,0,0.1,0,0.1c0,0,0,0.1,0,0.2
				c0,0.1,0,0.2,0,0.2c0,0.2,0,0.3,0,0.5c0,0.4-0.1,0.7-0.1,1.1c0,0.1,0,0.2-0.1,0.3l0,0.1c0,0,0,0,0,0.1c0,0,0,0,0,0l0,0.2
				c-0.1,0.2-0.2,0.4-0.3,0.5c-0.2,0.4-0.4,0.7-0.7,1c-0.3,0.3-0.6,0.5-1,0.7c-0.2,0.1-0.4,0.2-0.6,0.3c-0.1,0-0.1,0-0.2,0.1
				c0,0-0.1,0-0.1,0c-0.1,0-0.1,0-0.2,0c0,0-0.1,0-0.1,0l-0.2,0c0,0,0,0,0,0c0,0-0.1,0-0.1,0c-0.1,0-0.2,0-0.3,0c-0.2,0-0.4,0-0.6,0
				c-0.2,0-0.4-0.1-0.6-0.1c-0.1,0-0.1,0-0.2-0.1h0c0,0,0,0-0.1,0l-0.1,0l0,0l-0.1,0l-0.1,0l-0.1-0.1c-0.4-0.2-0.7-0.5-0.9-0.8
				c-0.1-0.2-0.3-0.3-0.4-0.5c0,0,0,0,0-0.1c0-0.1-0.1-0.1-0.1-0.2c0,0,0,0,0-0.1c0-0.1-0.1-0.1-0.1-0.2c-0.3-0.6-0.6-1.3-0.7-1.9
				c-0.1-0.3-0.1-0.6-0.1-1c0-0.3,0-0.6,0.1-0.9c0.1-0.3,0.1-0.6,0.2-0.8c0.1-0.2,0.2-0.5,0.3-0.6c0.2-0.4,0.4-0.7,0.6-0.9
				c0.2-0.2,0.3-0.4,0.4-0.5c0.4-0.4,0.8-0.7,1.3-0.8c0.2-0.1,0.4-0.2,0.6-0.2c0.2,0,0.4-0.1,0.6,0c0.4,0,0.6,0.1,0.8,0.2
				c0.2,0.1,0.3,0.3,0.2,0.4c0,0.1-0.1,0.3-0.2,0.4c-0.1,0.1-0.3,0.2-0.4,0.3c0,0-0.1,0-0.1,0.1c-0.1,0.1-0.2,0.1-0.3,0.2
				c-0.1,0.1-0.2,0.2-0.3,0.3c-0.2,0.2-0.5,0.4-0.7,0.6c-0.1,0.1-0.2,0.2-0.3,0.3c-0.1,0.2-0.3,0.4-0.4,0.6c0,0,0,0.1-0.1,0.1
				c0,0,0,0,0,0.1c0,0.1-0.1,0.1-0.1,0.2c-0.1,0.2-0.1,0.3-0.2,0.5c0,0.2-0.1,0.3-0.1,0.6c0,0.2,0,0.4,0,0.6
				c0.1,0.5,0.2,0.9,0.4,1.4c0,0,0,0.1,0,0.1c0,0,0,0,0,0.1c0,0,0,0.1,0.1,0.1c0,0,0,0,0,0.1c0.1,0.1,0.1,0.2,0.2,0.3
				c0.1,0.2,0.3,0.3,0.5,0.5l0.1,0.1l0,0h0l0,0c0,0,0,0,0,0l0,0c0,0,0.1,0,0.1,0c0.1,0,0.2,0.1,0.4,0.1c0.1,0,0.2,0,0.4,0
				c0.1,0,0.1,0,0.2,0h0.1l0.1,0c0,0,0.1,0,0.1,0c0,0,0.1,0,0.1,0c0,0,0,0,0.1,0c0,0,0.1,0,0.1,0c0.1,0,0.2-0.1,0.4-0.1
				c0.2-0.1,0.5-0.3,0.7-0.4c0.2-0.2,0.4-0.4,0.5-0.6c0.1-0.1,0.1-0.2,0.2-0.4l0-0.1v0l0,0v0c0,0,0,0,0,0c0-0.1,0-0.1,0.1-0.2
				c0.1-0.3,0.1-0.6,0.2-0.9c0-0.3,0-0.6,0-0.9c0-0.6,0-1.1-0.2-1.7c-0.1-0.3-0.1-0.5-0.2-0.8c0-0.1-0.1-0.2-0.1-0.2
				c0,0,0-0.1,0-0.1c0,0,0-0.1,0-0.1c0-0.1-0.1-0.2-0.1-0.2c-0.3-0.8-0.7-1.4-1-1.8c0-0.1-0.1-0.2-0.1-0.2c-0.3-0.5-0.4-0.8-0.4-0.8
				C145.9,46,146.2,46.2,146.6,46.7z"/>
		</g>
		<g>
			<path class="st1" d="M61.4,21.1H23.8c4.9-4.6,11.5-7.4,18.8-7.4S56.5,16.5,61.4,21.1z"/>
			<path class="st1" d="M66.2,27H19c0.6-1,1.2-1.9,1.9-2.8h43.4C65,25.1,65.6,26,66.2,27z"/>
			<path class="st1" d="M68.9,32.9H16.4c0.3-0.9,0.6-1.9,1-2.7h50.4C68.2,31.1,68.6,32,68.9,32.9z"/>
			<path class="st1" d="M70,38.4H15.2c0.1-0.8,0.2-1.6,0.3-2.3h54.1C69.8,36.9,69.9,37.6,70,38.4z"/>
			<path class="st1" d="M70.1,41.6c-0.1,7.2-3,13.8-7.6,18.6c-2.7-3.2-5.3-6.7-7.6-10.1l-1,2.8l-7.1-5.1l-0.6,2.2L43.9,49l-1.9,1.3
				l-2.9-2.5L34,53.5v-6.2l-9.6,8.3l0,0c-0.9,1.1-1.9,2.2-2.8,3.2c-3.9-4.7-6.3-10.7-6.4-17.3H70.1z"/>
		</g>
	</g>
</g>
</svg>
